<?xml version="1.0" standalone="no"?><!-- Generator: Gravit.io --><svg xmlns="http://www.w3.org/2000/svg" xmlns:xlink="http://www.w3.org/1999/xlink" style="isolation:isolate" viewBox="135.388 295.436 338 238.564" width="338" height="238.564"><g><path d=" M 159.109 465.608 L 159.109 441.186 L 164.062 441.186 L 172.937 450.092 L 181.812 441.186 L 186.765 441.186 L 186.765 465.608 L 181.812 465.608 L 181.812 448.045 L 172.937 456.592 L 164.062 448.045 L 164.062 465.608 L 159.109 465.608 L 159.109 465.608 Z  M 191.995 465.608 L 203.464 441.186 L 208.714 441.186 L 220.526 465.608 L 215.323 465.608 L 213.37 461.498 L 199.104 461.498 L 197.214 465.608 L 191.995 465.608 L 191.995 465.608 Z  M 200.995 457.42 L 211.417 457.42 L 206.135 446.326 L 200.995 457.42 L 200.995 457.42 Z  M 224.24 462.358 L 226.881 458.342 L 226.881 458.342 Q 228.209 459.092 229.576 459.693 L 229.576 459.693 L 229.576 459.693 Q 230.943 460.295 232.412 460.709 L 232.412 460.709 L 232.412 460.709 Q 233.881 461.123 235.498 461.342 L 235.498 461.342 L 235.498 461.342 Q 237.115 461.561 238.943 461.561 L 238.943 461.561 L 238.943 461.561 Q 241.146 461.561 242.693 461.272 L 242.693 461.272 L 242.693 461.272 Q 244.24 460.983 245.217 460.475 L 245.217 460.475 L 245.217 460.475 Q 246.193 459.967 246.639 459.264 L 246.639 459.264 L 246.639 459.264 Q 247.084 458.561 247.084 457.733 L 247.084 457.733 L 247.084 457.733 Q 247.084 456.404 245.975 455.631 L 245.975 455.631 L 245.975 455.631 Q 244.865 454.858 242.553 454.858 L 242.553 454.858 L 242.553 454.858 Q 241.537 454.858 240.412 454.99 L 240.412 454.99 L 240.412 454.99 Q 239.287 455.123 238.139 455.279 L 238.139 455.279 L 238.139 455.279 Q 236.99 455.436 235.873 455.568 L 235.873 455.568 L 235.873 455.568 Q 234.756 455.701 233.771 455.701 L 233.771 455.701 L 233.771 455.701 Q 232.131 455.701 230.623 455.279 L 230.623 455.279 L 230.623 455.279 Q 229.115 454.858 227.951 454.014 L 227.951 454.014 L 227.951 454.014 Q 226.787 453.17 226.1 451.904 L 226.1 451.904 L 226.1 451.904 Q 225.412 450.639 225.412 448.951 L 225.412 448.951 L 225.412 448.951 Q 225.412 447.951 225.686 446.967 L 225.686 446.967 L 225.686 446.967 Q 225.959 445.983 226.561 445.084 L 226.561 445.084 L 226.561 445.084 Q 227.162 444.186 228.115 443.412 L 228.115 443.412 L 228.115 443.412 Q 229.068 442.639 230.42 442.076 L 230.42 442.076 L 230.42 442.076 Q 231.771 441.514 233.545 441.193 L 233.545 441.193 L 233.545 441.193 Q 235.318 440.873 237.584 440.873 L 237.584 440.873 L 237.584 440.873 Q 239.225 440.873 240.881 441.053 L 240.881 441.053 L 240.881 441.053 Q 242.537 441.233 244.107 441.561 L 244.107 441.561 L 244.107 441.561 Q 245.678 441.889 247.131 442.35 L 247.131 442.35 L 247.131 442.35 Q 248.584 442.811 249.834 443.373 L 249.834 443.373 L 247.662 447.373 L 247.662 447.373 Q 246.631 446.92 245.443 446.537 L 245.443 446.537 L 245.443 446.537 Q 244.256 446.154 242.959 445.873 L 242.959 445.873 L 242.959 445.873 Q 241.662 445.592 240.279 445.428 L 240.279 445.428 L 240.279 445.428 Q 238.896 445.264 237.459 445.264 L 237.459 445.264 L 237.459 445.264 Q 235.412 445.264 234.092 445.561 L 234.092 445.561 L 234.092 445.561 Q 232.771 445.858 231.99 446.318 L 231.99 446.318 L 231.99 446.318 Q 231.209 446.779 230.904 447.35 L 230.904 447.35 L 230.904 447.35 Q 230.6 447.92 230.6 448.483 L 230.6 448.483 L 230.6 448.483 Q 230.6 449.576 231.584 450.272 L 231.584 450.272 L 231.584 450.272 Q 232.568 450.967 234.584 450.967 L 234.584 450.967 L 234.584 450.967 Q 235.396 450.967 236.451 450.85 L 236.451 450.85 L 236.451 450.85 Q 237.506 450.733 238.67 450.592 L 238.67 450.592 L 238.67 450.592 Q 239.834 450.451 241.045 450.334 L 241.045 450.334 L 241.045 450.334 Q 242.256 450.217 243.396 450.217 L 243.396 450.217 L 243.396 450.217 Q 245.553 450.217 247.217 450.701 L 247.217 450.701 L 247.217 450.701 Q 248.881 451.186 250.006 452.084 L 250.006 452.084 L 250.006 452.084 Q 251.131 452.983 251.709 454.256 L 251.709 454.256 L 251.709 454.256 Q 252.287 455.529 252.287 457.108 L 252.287 457.108 L 252.287 457.108 Q 252.287 459.217 251.311 460.865 L 251.311 460.865 L 251.311 460.865 Q 250.334 462.514 248.529 463.647 L 248.529 463.647 L 248.529 463.647 Q 246.725 464.779 244.178 465.365 L 244.178 465.365 L 244.178 465.365 Q 241.631 465.951 238.506 465.951 L 238.506 465.951 L 238.506 465.951 Q 236.443 465.951 234.475 465.693 L 234.475 465.693 L 234.475 465.693 Q 232.506 465.436 230.701 464.959 L 230.701 464.959 L 230.701 464.959 Q 228.896 464.483 227.264 463.818 L 227.264 463.818 L 227.264 463.818 Q 225.631 463.154 224.24 462.358 L 224.24 462.358 L 224.24 462.358 Z  M 266.517 465.608 L 266.517 445.529 L 257.501 445.529 L 257.501 441.186 L 280.486 441.186 L 280.486 445.529 L 271.47 445.529 L 271.47 465.608 L 266.517 465.608 L 266.517 465.608 Z  M 287.184 465.608 L 287.184 441.186 L 307.981 441.186 L 307.981 445.529 L 292.137 445.529 L 292.137 450.404 L 306.169 450.404 L 306.169 454.483 L 292.137 454.483 L 292.137 461.279 L 308.309 461.279 L 308.309 465.608 L 287.184 465.608 L 287.184 465.608 Z  M 315.227 465.608 L 315.227 441.186 L 327.648 441.186 L 327.648 441.186 Q 330.461 441.186 332.523 441.772 L 332.523 441.772 L 332.523 441.772 Q 334.586 442.358 335.945 443.467 L 335.945 443.467 L 335.945 443.467 Q 337.305 444.576 337.969 446.17 L 337.969 446.17 L 337.969 446.17 Q 338.633 447.764 338.633 449.779 L 338.633 449.779 L 338.633 449.779 Q 338.633 451.139 338.305 452.365 L 338.305 452.365 L 338.305 452.365 Q 337.977 453.592 337.297 454.623 L 337.297 454.623 L 337.297 454.623 Q 336.617 455.654 335.586 456.459 L 335.586 456.459 L 335.586 456.459 Q 334.555 457.264 333.164 457.795 L 333.164 457.795 L 338.477 465.608 L 332.414 465.608 L 327.82 458.67 L 327.68 458.67 L 320.18 458.654 L 320.18 465.608 L 315.227 465.608 L 315.227 465.608 Z  M 320.18 454.373 L 327.773 454.373 L 327.773 454.373 Q 329.18 454.373 330.234 454.045 L 330.234 454.045 L 330.234 454.045 Q 331.289 453.717 332 453.123 L 332 453.123 L 332 453.123 Q 332.711 452.529 333.063 451.678 L 333.063 451.678 L 333.063 451.678 Q 333.414 450.826 333.414 449.779 L 333.414 449.779 L 333.414 449.779 Q 333.414 447.733 332.008 446.615 L 332.008 446.615 L 332.008 446.615 Q 330.602 445.498 327.773 445.498 L 327.773 445.498 L 320.18 445.498 L 320.18 454.373 L 320.18 454.373 Z  M 345.925 465.608 L 345.925 441.186 L 350.878 441.186 L 359.753 450.092 L 368.628 441.186 L 373.581 441.186 L 373.581 465.608 L 368.628 465.608 L 368.628 448.045 L 359.753 456.592 L 350.878 448.045 L 350.878 465.608 L 345.925 465.608 L 345.925 465.608 Z  M 381.327 465.608 L 381.327 441.186 L 386.311 441.186 L 386.311 465.608 L 381.327 465.608 L 381.327 465.608 Z  M 394.01 465.608 L 394.01 441.186 L 398.963 441.186 L 414.182 449.154 L 414.182 441.186 L 419.135 441.186 L 419.135 465.608 L 414.182 465.608 L 414.182 454.404 L 398.963 446.483 L 398.963 465.608 L 394.01 465.608 L 394.01 465.608 Z  M 427.458 465.608 L 427.458 441.186 L 436.411 441.186 L 436.411 441.186 Q 440.333 441.186 443.224 442.029 L 443.224 442.029 L 443.224 442.029 Q 446.115 442.873 448.013 444.443 L 448.013 444.443 L 448.013 444.443 Q 449.911 446.014 450.841 448.256 L 450.841 448.256 L 450.841 448.256 Q 451.771 450.498 451.771 453.295 L 451.771 453.295 L 451.771 453.295 Q 451.771 455.951 450.849 458.209 L 450.849 458.209 L 450.849 458.209 Q 449.927 460.467 448.036 462.115 L 448.036 462.115 L 448.036 462.115 Q 446.146 463.764 443.255 464.693 L 443.255 464.693 L 443.255 464.693 Q 440.365 465.623 436.443 465.623 L 436.443 465.623 L 427.458 465.608 L 427.458 465.608 Z  M 432.411 461.326 L 437.63 461.326 L 437.63 461.326 Q 439.849 461.326 441.521 460.756 L 441.521 460.756 L 441.521 460.756 Q 443.193 460.186 444.31 459.139 L 444.31 459.139 L 444.31 459.139 Q 445.427 458.092 445.99 456.608 L 445.99 456.608 L 445.99 456.608 Q 446.552 455.123 446.552 453.295 L 446.552 453.295 L 446.552 453.295 Q 446.552 451.498 445.99 450.053 L 445.99 450.053 L 445.99 450.053 Q 445.427 448.608 444.31 447.6 L 444.31 447.6 L 444.31 447.6 Q 443.193 446.592 441.521 446.045 L 441.521 446.045 L 441.521 446.045 Q 439.849 445.498 437.63 445.498 L 437.63 445.498 L 432.411 445.498 L 432.411 461.326 L 432.411 461.326 Z " fill="rgb(0,0,0)"/><path d=" M 217.123 501.799 L 217.123 501.799 L 217.123 501.799 Q 217.123 496.906 218.969 492.673 L 218.969 492.673 L 218.969 492.673 Q 220.815 488.439 224.316 485.319 L 224.316 485.319 L 224.316 485.319 Q 227.817 482.199 232.87 480.412 L 232.87 480.412 L 232.87 480.412 Q 237.924 478.625 244.311 478.625 L 244.311 478.625 L 244.311 478.625 Q 249.906 478.625 254.579 479.753 L 254.579 479.753 L 254.579 479.753 Q 259.252 480.881 263.266 483.195 L 263.266 483.195 L 258.988 490.227 L 258.988 490.227 Q 257.787 489.436 256.22 488.82 L 256.22 488.82 L 256.22 488.82 Q 254.652 488.205 252.88 487.78 L 252.88 487.78 L 252.88 487.78 Q 251.108 487.355 249.218 487.121 L 249.218 487.121 L 249.218 487.121 Q 247.328 486.887 245.483 486.887 L 245.483 486.887 L 245.483 486.887 Q 241.029 486.887 237.543 487.985 L 237.543 487.985 L 237.543 487.985 Q 234.057 489.084 231.669 491.062 L 231.669 491.062 L 231.669 491.062 Q 229.281 493.039 228.036 495.778 L 228.036 495.778 L 228.036 495.778 Q 226.791 498.518 226.791 501.799 L 226.791 501.799 L 226.791 501.799 Q 226.791 505.197 228.08 508.039 L 228.08 508.039 L 228.08 508.039 Q 229.369 510.881 231.816 512.946 L 231.816 512.946 L 231.816 512.946 Q 234.262 515.012 237.792 516.169 L 237.792 516.169 L 237.792 516.169 Q 241.322 517.326 245.775 517.326 L 245.775 517.326 L 245.775 517.326 Q 247.797 517.326 249.789 517.033 L 249.789 517.033 L 249.789 517.033 Q 251.781 516.74 253.642 516.228 L 253.642 516.228 L 253.642 516.228 Q 255.502 515.715 257.231 514.997 L 257.231 514.997 L 257.231 514.997 Q 258.959 514.279 260.453 513.43 L 260.453 513.43 L 264.731 520.461 L 264.731 520.461 Q 260.981 522.863 256.059 524.226 L 256.059 524.226 L 256.059 524.226 Q 251.137 525.588 245.6 525.588 L 245.6 525.588 L 245.6 525.588 Q 238.539 525.588 233.207 523.757 L 233.207 523.757 L 233.207 523.757 Q 227.875 521.926 224.301 518.718 L 224.301 518.718 L 224.301 518.718 Q 220.727 515.51 218.925 511.159 L 218.925 511.159 L 218.925 511.159 Q 217.123 506.809 217.123 501.799 Z  M 274.984 524.973 L 274.984 479.182 L 284.272 479.182 L 300.912 495.881 L 317.553 479.182 L 326.84 479.182 L 326.84 524.973 L 317.553 524.973 L 317.553 492.043 L 300.912 508.068 L 284.272 492.043 L 284.272 524.973 L 274.984 524.973 L 274.984 524.973 Z  M 337.065 518.879 L 342.016 511.35 L 342.016 511.35 Q 344.506 512.756 347.069 513.884 L 347.069 513.884 L 347.069 513.884 Q 349.633 515.012 352.387 515.788 L 352.387 515.788 L 352.387 515.788 Q 355.141 516.564 358.173 516.975 L 358.173 516.975 L 358.173 516.975 Q 361.205 517.385 364.633 517.385 L 364.633 517.385 L 364.633 517.385 Q 368.764 517.385 371.664 516.843 L 371.664 516.843 L 371.664 516.843 Q 374.565 516.301 376.396 515.349 L 376.396 515.349 L 376.396 515.349 Q 378.227 514.396 379.062 513.078 L 379.062 513.078 L 379.062 513.078 Q 379.897 511.76 379.897 510.207 L 379.897 510.207 L 379.897 510.207 Q 379.897 507.717 377.817 506.267 L 377.817 506.267 L 377.817 506.267 Q 375.736 504.816 371.4 504.816 L 371.4 504.816 L 371.4 504.816 Q 369.496 504.816 367.387 505.065 L 367.387 505.065 L 367.387 505.065 Q 365.277 505.314 363.124 505.607 L 363.124 505.607 L 363.124 505.607 Q 360.971 505.9 358.876 506.149 L 358.876 506.149 L 358.876 506.149 Q 356.781 506.398 354.936 506.398 L 354.936 506.398 L 354.936 506.398 Q 351.859 506.398 349.032 505.607 L 349.032 505.607 L 349.032 505.607 Q 346.205 504.816 344.023 503.234 L 344.023 503.234 L 344.023 503.234 Q 341.84 501.652 340.551 499.279 L 340.551 499.279 L 340.551 499.279 Q 339.262 496.906 339.262 493.742 L 339.262 493.742 L 339.262 493.742 Q 339.262 491.867 339.775 490.021 L 339.775 490.021 L 339.775 490.021 Q 340.287 488.176 341.415 486.491 L 341.415 486.491 L 341.415 486.491 Q 342.543 484.807 344.33 483.356 L 344.33 483.356 L 344.33 483.356 Q 346.117 481.906 348.651 480.852 L 348.651 480.852 L 348.651 480.852 Q 351.186 479.797 354.511 479.196 L 354.511 479.196 L 354.511 479.196 Q 357.836 478.596 362.084 478.596 L 362.084 478.596 L 362.084 478.596 Q 365.16 478.596 368.266 478.933 L 368.266 478.933 L 368.266 478.933 Q 371.371 479.27 374.316 479.885 L 374.316 479.885 L 374.316 479.885 Q 377.26 480.5 379.984 481.364 L 379.984 481.364 L 379.984 481.364 Q 382.709 482.229 385.053 483.283 L 385.053 483.283 L 380.981 490.783 L 380.981 490.783 Q 379.047 489.934 376.82 489.216 L 376.82 489.216 L 376.82 489.216 Q 374.594 488.498 372.162 487.971 L 372.162 487.971 L 372.162 487.971 Q 369.731 487.443 367.138 487.136 L 367.138 487.136 L 367.138 487.136 Q 364.545 486.828 361.85 486.828 L 361.85 486.828 L 361.85 486.828 Q 358.012 486.828 355.536 487.385 L 355.536 487.385 L 355.536 487.385 Q 353.061 487.941 351.596 488.806 L 351.596 488.806 L 351.596 488.806 Q 350.131 489.67 349.56 490.739 L 349.56 490.739 L 349.56 490.739 Q 348.988 491.809 348.988 492.863 L 348.988 492.863 L 348.988 492.863 Q 348.988 494.914 350.834 496.218 L 350.834 496.218 L 350.834 496.218 Q 352.68 497.521 356.459 497.521 L 356.459 497.521 L 356.459 497.521 Q 357.983 497.521 359.96 497.302 L 359.96 497.302 L 359.96 497.302 Q 361.938 497.082 364.12 496.818 L 364.12 496.818 L 364.12 496.818 Q 366.303 496.555 368.573 496.335 L 368.573 496.335 L 368.573 496.335 Q 370.844 496.115 372.983 496.115 L 372.983 496.115 L 372.983 496.115 Q 377.025 496.115 380.146 497.023 L 380.146 497.023 L 380.146 497.023 Q 383.266 497.932 385.375 499.616 L 385.375 499.616 L 385.375 499.616 Q 387.484 501.301 388.568 503.688 L 388.568 503.688 L 388.568 503.688 Q 389.652 506.076 389.652 509.035 L 389.652 509.035 L 389.652 509.035 Q 389.652 512.99 387.821 516.081 L 387.821 516.081 L 387.821 516.081 Q 385.99 519.172 382.607 521.296 L 382.607 521.296 L 382.607 521.296 Q 379.223 523.42 374.447 524.519 L 374.447 524.519 L 374.447 524.519 Q 369.672 525.617 363.813 525.617 L 363.813 525.617 L 363.813 525.617 Q 359.945 525.617 356.254 525.134 L 356.254 525.134 L 356.254 525.134 Q 352.563 524.65 349.179 523.757 L 349.179 523.757 L 349.179 523.757 Q 345.795 522.863 342.733 521.618 L 342.733 521.618 L 342.733 521.618 Q 339.672 520.373 337.065 518.879 L 337.065 518.879 L 337.065 518.879 Z " fill="rgb(0,0,0)"/><g><polygon points="271.669,393.997,271.669,431.778,238.95,412.887" fill="rgb(242,54,60)"/><polygon points="369.826,375.107,369.826,412.887,337.107,393.997" fill="rgb(238,118,12)"/><polygon points="271.669,356.216,271.669,393.997,238.95,375.107" fill="rgb(192,4,97)"/><polygon points="238.95,375.107,238.95,412.887,271.669,393.997" fill="rgb(222,4,74)"/><polygon points="337.107,393.997,337.107,431.778,369.826,412.887" fill="rgb(238,142,62)"/><polygon points="337.107,356.216,337.107,393.997,369.826,375.107" fill="rgb(245,16,56)"/><polygon points="238.95,337.326,238.95,375.107,271.669,356.216" fill="rgb(173,27,145)"/><polygon points="369.826,337.326,369.826,375.107,337.107,356.216" fill="rgb(198,102,35)"/><defs><filter id="WFGqzaUNKRD7G6f1C4ty9hxZUcenkgpr" x="-200%" y="-200%" width="400%" height="400%" filterUnits="objectBoundingBox" color-interpolation-filters="sRGB"><feGaussianBlur xmlns="http://www.w3.org/2000/svg" in="SourceGraphic" stdDeviation="10.73402265709757"/><feOffset xmlns="http://www.w3.org/2000/svg" dx="0" dy="10" result="pf_100_offsetBlur"/><feFlood xmlns="http://www.w3.org/2000/svg" flood-color="#000000" flood-opacity="0.65"/><feComposite xmlns="http://www.w3.org/2000/svg" in2="pf_100_offsetBlur" operator="in" result="pf_100_dropShadow"/><feBlend xmlns="http://www.w3.org/2000/svg" in="SourceGraphic" in2="pf_100_dropShadow" mode="normal"/></filter></defs><g filter="url(#WFGqzaUNKRD7G6f1C4ty9hxZUcenkgpr)"><polygon points="271.669,318.436,271.669,356.216,238.95,337.326" fill="rgb(153,5,122)"/></g><polygon points="271.669,318.436,271.669,356.216,304.388,337.326" fill="rgb(146,20,110)"/><polygon points="304.388,337.326,304.388,375.107,271.669,356.216" fill="rgb(192,4,97)"/><defs><filter id="djQAGez4BTDPdOTDxSAbY2glBTtz6u6Y" x="-200%" y="-200%" width="400%" height="400%" filterUnits="objectBoundingBox" color-interpolation-filters="sRGB"><feGaussianBlur xmlns="http://www.w3.org/2000/svg" in="SourceGraphic" stdDeviation="10.73402265709757"/><feOffset xmlns="http://www.w3.org/2000/svg" dx="0" dy="10" result="pf_100_offsetBlur"/><feFlood xmlns="http://www.w3.org/2000/svg" flood-color="#000000" flood-opacity="0.65"/><feComposite xmlns="http://www.w3.org/2000/svg" in2="pf_100_offsetBlur" operator="in" result="pf_100_dropShadow"/><feBlend xmlns="http://www.w3.org/2000/svg" in="SourceGraphic" in2="pf_100_dropShadow" mode="normal"/></filter></defs><g filter="url(#djQAGez4BTDPdOTDxSAbY2glBTtz6u6Y)"><polygon points="337.107,318.436,337.107,356.216,369.826,337.326" fill="rgb(183,86,26)"/></g><polygon points="337.107,318.436,337.107,356.216,304.388,337.326" fill="rgb(245,16,56)"/><polygon points="369.826,299.546,369.826,337.326,337.107,318.436" fill="rgb(118,145,57)"/><polygon points="238.95,299.546,238.95,337.326,271.669,318.436" fill="rgb(119,10,134)"/><polygon points="304.388,337.326,304.388,375.107,337.107,356.216" fill="rgb(221,4,74)"/></g></g></svg>