<?xml version="1.0" encoding="UTF-8" standalone="no"?><!-- Generator: Gravit.io --><svg xmlns="http://www.w3.org/2000/svg" xmlns:xlink="http://www.w3.org/1999/xlink" style="isolation:isolate" viewBox="0 0 338 238.564" width="338pt" height="238.564pt"><defs><clipPath id="_clipPath_ykXtu0QFq8O8VGh9v2tVeCLy0uTLTb4R"><rect width="338" height="238.564"/></clipPath></defs><g clip-path="url(#_clipPath_ykXtu0QFq8O8VGh9v2tVeCLy0uTLTb4R)"><path d=" M 23.721 170.172 L 23.721 145.75 L 28.674 145.75 L 37.549 154.656 L 46.424 145.75 L 51.377 145.75 L 51.377 170.172 L 46.424 170.172 L 46.424 152.609 L 37.549 161.156 L 28.674 152.609 L 28.674 170.172 L 23.721 170.172 L 23.721 170.172 Z  M 56.607 170.172 L 68.076 145.75 L 73.326 145.75 L 85.138 170.172 L 79.935 170.172 L 77.982 166.062 L 63.716 166.062 L 61.826 170.172 L 56.607 170.172 L 56.607 170.172 Z  M 65.607 161.984 L 76.029 161.984 L 70.747 150.89 L 65.607 161.984 L 65.607 161.984 Z  M 88.852 166.922 L 91.493 162.906 L 91.493 162.906 Q 92.821 163.656 94.188 164.257 L 94.188 164.257 L 94.188 164.257 Q 95.555 164.859 97.024 165.273 L 97.024 165.273 L 97.024 165.273 Q 98.493 165.687 100.11 165.906 L 100.11 165.906 L 100.11 165.906 Q 101.727 166.125 103.555 166.125 L 103.555 166.125 L 103.555 166.125 Q 105.758 166.125 107.305 165.836 L 107.305 165.836 L 107.305 165.836 Q 108.852 165.547 109.829 165.039 L 109.829 165.039 L 109.829 165.039 Q 110.805 164.531 111.251 163.828 L 111.251 163.828 L 111.251 163.828 Q 111.696 163.125 111.696 162.297 L 111.696 162.297 L 111.696 162.297 Q 111.696 160.968 110.587 160.195 L 110.587 160.195 L 110.587 160.195 Q 109.477 159.422 107.165 159.422 L 107.165 159.422 L 107.165 159.422 Q 106.149 159.422 105.024 159.554 L 105.024 159.554 L 105.024 159.554 Q 103.899 159.687 102.751 159.843 L 102.751 159.843 L 102.751 159.843 Q 101.602 160 100.485 160.132 L 100.485 160.132 L 100.485 160.132 Q 99.368 160.265 98.383 160.265 L 98.383 160.265 L 98.383 160.265 Q 96.743 160.265 95.235 159.843 L 95.235 159.843 L 95.235 159.843 Q 93.727 159.422 92.563 158.578 L 92.563 158.578 L 92.563 158.578 Q 91.399 157.734 90.712 156.468 L 90.712 156.468 L 90.712 156.468 Q 90.024 155.203 90.024 153.515 L 90.024 153.515 L 90.024 153.515 Q 90.024 152.515 90.298 151.531 L 90.298 151.531 L 90.298 151.531 Q 90.571 150.547 91.173 149.648 L 91.173 149.648 L 91.173 149.648 Q 91.774 148.75 92.727 147.976 L 92.727 147.976 L 92.727 147.976 Q 93.68 147.203 95.032 146.64 L 95.032 146.64 L 95.032 146.64 Q 96.383 146.078 98.157 145.757 L 98.157 145.757 L 98.157 145.757 Q 99.93 145.437 102.196 145.437 L 102.196 145.437 L 102.196 145.437 Q 103.837 145.437 105.493 145.617 L 105.493 145.617 L 105.493 145.617 Q 107.149 145.797 108.719 146.125 L 108.719 146.125 L 108.719 146.125 Q 110.29 146.453 111.743 146.914 L 111.743 146.914 L 111.743 146.914 Q 113.196 147.375 114.446 147.937 L 114.446 147.937 L 112.274 151.937 L 112.274 151.937 Q 111.243 151.484 110.055 151.101 L 110.055 151.101 L 110.055 151.101 Q 108.868 150.718 107.571 150.437 L 107.571 150.437 L 107.571 150.437 Q 106.274 150.156 104.891 149.992 L 104.891 149.992 L 104.891 149.992 Q 103.508 149.828 102.071 149.828 L 102.071 149.828 L 102.071 149.828 Q 100.024 149.828 98.704 150.125 L 98.704 150.125 L 98.704 150.125 Q 97.383 150.422 96.602 150.882 L 96.602 150.882 L 96.602 150.882 Q 95.821 151.343 95.516 151.914 L 95.516 151.914 L 95.516 151.914 Q 95.212 152.484 95.212 153.047 L 95.212 153.047 L 95.212 153.047 Q 95.212 154.14 96.196 154.836 L 96.196 154.836 L 96.196 154.836 Q 97.18 155.531 99.196 155.531 L 99.196 155.531 L 99.196 155.531 Q 100.008 155.531 101.063 155.414 L 101.063 155.414 L 101.063 155.414 Q 102.118 155.297 103.282 155.156 L 103.282 155.156 L 103.282 155.156 Q 104.446 155.015 105.657 154.898 L 105.657 154.898 L 105.657 154.898 Q 106.868 154.781 108.008 154.781 L 108.008 154.781 L 108.008 154.781 Q 110.165 154.781 111.829 155.265 L 111.829 155.265 L 111.829 155.265 Q 113.493 155.75 114.618 156.648 L 114.618 156.648 L 114.618 156.648 Q 115.743 157.547 116.321 158.82 L 116.321 158.82 L 116.321 158.82 Q 116.899 160.093 116.899 161.672 L 116.899 161.672 L 116.899 161.672 Q 116.899 163.781 115.923 165.429 L 115.923 165.429 L 115.923 165.429 Q 114.946 167.078 113.141 168.211 L 113.141 168.211 L 113.141 168.211 Q 111.337 169.343 108.79 169.929 L 108.79 169.929 L 108.79 169.929 Q 106.243 170.515 103.118 170.515 L 103.118 170.515 L 103.118 170.515 Q 101.055 170.515 99.087 170.257 L 99.087 170.257 L 99.087 170.257 Q 97.118 170 95.313 169.523 L 95.313 169.523 L 95.313 169.523 Q 93.508 169.047 91.876 168.382 L 91.876 168.382 L 91.876 168.382 Q 90.243 167.718 88.852 166.922 L 88.852 166.922 L 88.852 166.922 Z  M 131.129 170.172 L 131.129 150.093 L 122.113 150.093 L 122.113 145.75 L 145.098 145.75 L 145.098 150.093 L 136.082 150.093 L 136.082 170.172 L 131.129 170.172 L 131.129 170.172 Z  M 151.796 170.172 L 151.796 145.75 L 172.593 145.75 L 172.593 150.093 L 156.749 150.093 L 156.749 154.968 L 170.781 154.968 L 170.781 159.047 L 156.749 159.047 L 156.749 165.843 L 172.921 165.843 L 172.921 170.172 L 151.796 170.172 L 151.796 170.172 Z  M 179.839 170.172 L 179.839 145.75 L 192.26 145.75 L 192.26 145.75 Q 195.073 145.75 197.135 146.336 L 197.135 146.336 L 197.135 146.336 Q 199.198 146.922 200.557 148.031 L 200.557 148.031 L 200.557 148.031 Q 201.917 149.14 202.581 150.734 L 202.581 150.734 L 202.581 150.734 Q 203.245 152.328 203.245 154.343 L 203.245 154.343 L 203.245 154.343 Q 203.245 155.703 202.917 156.929 L 202.917 156.929 L 202.917 156.929 Q 202.589 158.156 201.909 159.187 L 201.909 159.187 L 201.909 159.187 Q 201.229 160.218 200.198 161.023 L 200.198 161.023 L 200.198 161.023 Q 199.167 161.828 197.776 162.359 L 197.776 162.359 L 203.089 170.172 L 197.026 170.172 L 192.432 163.234 L 192.292 163.234 L 184.792 163.218 L 184.792 170.172 L 179.839 170.172 L 179.839 170.172 Z  M 184.792 158.937 L 192.385 158.937 L 192.385 158.937 Q 193.792 158.937 194.846 158.609 L 194.846 158.609 L 194.846 158.609 Q 195.901 158.281 196.612 157.687 L 196.612 157.687 L 196.612 157.687 Q 197.323 157.093 197.675 156.242 L 197.675 156.242 L 197.675 156.242 Q 198.026 155.39 198.026 154.343 L 198.026 154.343 L 198.026 154.343 Q 198.026 152.297 196.62 151.179 L 196.62 151.179 L 196.62 151.179 Q 195.214 150.062 192.385 150.062 L 192.385 150.062 L 184.792 150.062 L 184.792 158.937 L 184.792 158.937 Z  M 210.537 170.172 L 210.537 145.75 L 215.49 145.75 L 224.365 154.656 L 233.24 145.75 L 238.193 145.75 L 238.193 170.172 L 233.24 170.172 L 233.24 152.609 L 224.365 161.156 L 215.49 152.609 L 215.49 170.172 L 210.537 170.172 L 210.537 170.172 Z  M 245.939 170.172 L 245.939 145.75 L 250.923 145.75 L 250.923 170.172 L 245.939 170.172 L 245.939 170.172 Z  M 258.622 170.172 L 258.622 145.75 L 263.575 145.75 L 278.794 153.718 L 278.794 145.75 L 283.747 145.75 L 283.747 170.172 L 278.794 170.172 L 278.794 158.968 L 263.575 151.047 L 263.575 170.172 L 258.622 170.172 L 258.622 170.172 Z  M 292.07 170.172 L 292.07 145.75 L 301.023 145.75 L 301.023 145.75 Q 304.945 145.75 307.836 146.593 L 307.836 146.593 L 307.836 146.593 Q 310.727 147.437 312.625 149.007 L 312.625 149.007 L 312.625 149.007 Q 314.523 150.578 315.453 152.82 L 315.453 152.82 L 315.453 152.82 Q 316.383 155.062 316.383 157.859 L 316.383 157.859 L 316.383 157.859 Q 316.383 160.515 315.461 162.773 L 315.461 162.773 L 315.461 162.773 Q 314.539 165.031 312.648 166.679 L 312.648 166.679 L 312.648 166.679 Q 310.758 168.328 307.867 169.257 L 307.867 169.257 L 307.867 169.257 Q 304.977 170.187 301.055 170.187 L 301.055 170.187 L 292.07 170.172 L 292.07 170.172 Z  M 297.023 165.89 L 302.242 165.89 L 302.242 165.89 Q 304.461 165.89 306.133 165.32 L 306.133 165.32 L 306.133 165.32 Q 307.805 164.75 308.922 163.703 L 308.922 163.703 L 308.922 163.703 Q 310.039 162.656 310.602 161.172 L 310.602 161.172 L 310.602 161.172 Q 311.164 159.687 311.164 157.859 L 311.164 157.859 L 311.164 157.859 Q 311.164 156.062 310.602 154.617 L 310.602 154.617 L 310.602 154.617 Q 310.039 153.172 308.922 152.164 L 308.922 152.164 L 308.922 152.164 Q 307.805 151.156 306.133 150.609 L 306.133 150.609 L 306.133 150.609 Q 304.461 150.062 302.242 150.062 L 302.242 150.062 L 297.023 150.062 L 297.023 165.89 L 297.023 165.89 Z " fill="rgb(255,255,255)"/><path d=" M 81.735 206.363 L 81.735 206.363 L 81.735 206.363 Q 81.735 201.47 83.581 197.237 L 83.581 197.237 L 83.581 197.237 Q 85.427 193.003 88.928 189.883 L 88.928 189.883 L 88.928 189.883 Q 92.429 186.763 97.482 184.976 L 97.482 184.976 L 97.482 184.976 Q 102.536 183.189 108.923 183.189 L 108.923 183.189 L 108.923 183.189 Q 114.518 183.189 119.191 184.317 L 119.191 184.317 L 119.191 184.317 Q 123.864 185.445 127.878 187.759 L 127.878 187.759 L 123.6 194.791 L 123.6 194.791 Q 122.399 194 120.832 193.384 L 120.832 193.384 L 120.832 193.384 Q 119.264 192.769 117.492 192.344 L 117.492 192.344 L 117.492 192.344 Q 115.72 191.919 113.83 191.685 L 113.83 191.685 L 113.83 191.685 Q 111.94 191.451 110.095 191.451 L 110.095 191.451 L 110.095 191.451 Q 105.641 191.451 102.155 192.549 L 102.155 192.549 L 102.155 192.549 Q 98.669 193.648 96.281 195.626 L 96.281 195.626 L 96.281 195.626 Q 93.893 197.603 92.648 200.342 L 92.648 200.342 L 92.648 200.342 Q 91.403 203.082 91.403 206.363 L 91.403 206.363 L 91.403 206.363 Q 91.403 209.761 92.692 212.603 L 92.692 212.603 L 92.692 212.603 Q 93.981 215.445 96.428 217.51 L 96.428 217.51 L 96.428 217.51 Q 98.874 219.576 102.404 220.733 L 102.404 220.733 L 102.404 220.733 Q 105.934 221.89 110.387 221.89 L 110.387 221.89 L 110.387 221.89 Q 112.409 221.89 114.401 221.597 L 114.401 221.597 L 114.401 221.597 Q 116.393 221.304 118.254 220.792 L 118.254 220.792 L 118.254 220.792 Q 120.114 220.279 121.843 219.561 L 121.843 219.561 L 121.843 219.561 Q 123.571 218.843 125.065 217.994 L 125.065 217.994 L 129.343 225.025 L 129.343 225.025 Q 125.593 227.427 120.671 228.79 L 120.671 228.79 L 120.671 228.79 Q 115.749 230.152 110.212 230.152 L 110.212 230.152 L 110.212 230.152 Q 103.151 230.152 97.819 228.321 L 97.819 228.321 L 97.819 228.321 Q 92.487 226.49 88.913 223.282 L 88.913 223.282 L 88.913 223.282 Q 85.339 220.074 83.537 215.723 L 83.537 215.723 L 83.537 215.723 Q 81.735 211.373 81.735 206.363 Z  M 139.596 229.537 L 139.596 183.746 L 148.884 183.746 L 165.524 200.445 L 182.165 183.746 L 191.452 183.746 L 191.452 229.537 L 182.165 229.537 L 182.165 196.607 L 165.524 212.632 L 148.884 196.607 L 148.884 229.537 L 139.596 229.537 L 139.596 229.537 Z  M 201.677 223.443 L 206.628 215.914 L 206.628 215.914 Q 209.118 217.32 211.681 218.448 L 211.681 218.448 L 211.681 218.448 Q 214.245 219.576 216.999 220.352 L 216.999 220.352 L 216.999 220.352 Q 219.753 221.128 222.785 221.539 L 222.785 221.539 L 222.785 221.539 Q 225.817 221.949 229.245 221.949 L 229.245 221.949 L 229.245 221.949 Q 233.376 221.949 236.276 221.407 L 236.276 221.407 L 236.276 221.407 Q 239.177 220.865 241.008 219.913 L 241.008 219.913 L 241.008 219.913 Q 242.839 218.96 243.674 217.642 L 243.674 217.642 L 243.674 217.642 Q 244.509 216.324 244.509 214.771 L 244.509 214.771 L 244.509 214.771 Q 244.509 212.281 242.429 210.831 L 242.429 210.831 L 242.429 210.831 Q 240.348 209.38 236.012 209.38 L 236.012 209.38 L 236.012 209.38 Q 234.108 209.38 231.999 209.629 L 231.999 209.629 L 231.999 209.629 Q 229.889 209.878 227.736 210.171 L 227.736 210.171 L 227.736 210.171 Q 225.583 210.464 223.488 210.713 L 223.488 210.713 L 223.488 210.713 Q 221.393 210.962 219.548 210.962 L 219.548 210.962 L 219.548 210.962 Q 216.471 210.962 213.644 210.171 L 213.644 210.171 L 213.644 210.171 Q 210.817 209.38 208.635 207.798 L 208.635 207.798 L 208.635 207.798 Q 206.452 206.216 205.163 203.843 L 205.163 203.843 L 205.163 203.843 Q 203.874 201.47 203.874 198.306 L 203.874 198.306 L 203.874 198.306 Q 203.874 196.431 204.387 194.585 L 204.387 194.585 L 204.387 194.585 Q 204.899 192.74 206.027 191.055 L 206.027 191.055 L 206.027 191.055 Q 207.155 189.371 208.942 187.92 L 208.942 187.92 L 208.942 187.92 Q 210.729 186.47 213.263 185.416 L 213.263 185.416 L 213.263 185.416 Q 215.798 184.361 219.123 183.76 L 219.123 183.76 L 219.123 183.76 Q 222.448 183.16 226.696 183.16 L 226.696 183.16 L 226.696 183.16 Q 229.772 183.16 232.878 183.497 L 232.878 183.497 L 232.878 183.497 Q 235.983 183.834 238.928 184.449 L 238.928 184.449 L 238.928 184.449 Q 241.872 185.064 244.596 185.928 L 244.596 185.928 L 244.596 185.928 Q 247.321 186.793 249.665 187.847 L 249.665 187.847 L 245.593 195.347 L 245.593 195.347 Q 243.659 194.498 241.432 193.78 L 241.432 193.78 L 241.432 193.78 Q 239.206 193.062 236.774 192.535 L 236.774 192.535 L 236.774 192.535 Q 234.343 192.007 231.75 191.7 L 231.75 191.7 L 231.75 191.7 Q 229.157 191.392 226.462 191.392 L 226.462 191.392 L 226.462 191.392 Q 222.624 191.392 220.148 191.949 L 220.148 191.949 L 220.148 191.949 Q 217.673 192.505 216.208 193.37 L 216.208 193.37 L 216.208 193.37 Q 214.743 194.234 214.172 195.303 L 214.172 195.303 L 214.172 195.303 Q 213.6 196.373 213.6 197.427 L 213.6 197.427 L 213.6 197.427 Q 213.6 199.478 215.446 200.782 L 215.446 200.782 L 215.446 200.782 Q 217.292 202.085 221.071 202.085 L 221.071 202.085 L 221.071 202.085 Q 222.595 202.085 224.572 201.866 L 224.572 201.866 L 224.572 201.866 Q 226.55 201.646 228.732 201.382 L 228.732 201.382 L 228.732 201.382 Q 230.915 201.119 233.185 200.899 L 233.185 200.899 L 233.185 200.899 Q 235.456 200.679 237.595 200.679 L 237.595 200.679 L 237.595 200.679 Q 241.637 200.679 244.758 201.587 L 244.758 201.587 L 244.758 201.587 Q 247.878 202.496 249.987 204.18 L 249.987 204.18 L 249.987 204.18 Q 252.096 205.865 253.18 208.252 L 253.18 208.252 L 253.18 208.252 Q 254.264 210.64 254.264 213.599 L 254.264 213.599 L 254.264 213.599 Q 254.264 217.554 252.433 220.645 L 252.433 220.645 L 252.433 220.645 Q 250.602 223.736 247.219 225.86 L 247.219 225.86 L 247.219 225.86 Q 243.835 227.984 239.059 229.083 L 239.059 229.083 L 239.059 229.083 Q 234.284 230.181 228.425 230.181 L 228.425 230.181 L 228.425 230.181 Q 224.557 230.181 220.866 229.698 L 220.866 229.698 L 220.866 229.698 Q 217.175 229.214 213.791 228.321 L 213.791 228.321 L 213.791 228.321 Q 210.407 227.427 207.345 226.182 L 207.345 226.182 L 207.345 226.182 Q 204.284 224.937 201.677 223.443 L 201.677 223.443 L 201.677 223.443 Z " fill="rgb(255,255,255)"/><g><path d=" M 136.281 98.561 L 136.281 136.342 L 103.562 117.451 L 136.281 98.561 Z " fill="rgb(242,54,60)"/><path d=" M 234.438 79.671 L 234.438 117.451 L 201.719 98.561 L 234.438 79.671 Z " fill="rgb(238,118,12)"/><path d=" M 136.281 60.78 L 136.281 98.561 L 103.562 79.671 L 136.281 60.78 Z " fill="rgb(192,4,97)"/><path d=" M 103.562 79.671 L 103.562 117.451 L 136.281 98.561 L 103.562 79.671 Z " fill="rgb(222,4,74)"/><path d=" M 201.719 98.561 L 201.719 136.342 L 234.438 117.451 L 201.719 98.561 Z " fill="rgb(238,142,62)"/><path d=" M 201.719 60.78 L 201.719 98.561 L 234.438 79.671 L 201.719 60.78 Z " fill="rgb(245,16,56)"/><path d=" M 103.562 41.89 L 103.562 79.671 L 136.281 60.78 L 103.562 41.89 Z " fill="rgb(173,27,145)"/><path d=" M 234.438 41.89 L 234.438 79.671 L 201.719 60.78 L 234.438 41.89 Z " fill="rgb(198,102,35)"/><g filter="url(#y4FOwiBq2ggZJWAcmQ4tt6VIiIzBVkdh)"><path d=" M 136.281 23 L 136.281 60.78 L 103.562 41.89 L 136.281 23 Z " fill="rgb(153,5,122)"/></g><defs><filter id="y4FOwiBq2ggZJWAcmQ4tt6VIiIzBVkdh" x="-200%" y="-200%" width="400%" height="400%" filterUnits="objectBoundingBox" color-interpolation-filters="sRGB"><feGaussianBlur xmlns="http://www.w3.org/2000/svg" in="SourceGraphic" stdDeviation="10.73402265709757"/><feOffset xmlns="http://www.w3.org/2000/svg" dx="0" dy="10" result="pf_100_offsetBlur"/><feFlood xmlns="http://www.w3.org/2000/svg" flood-color="#000000" flood-opacity="0.65"/><feComposite xmlns="http://www.w3.org/2000/svg" in2="pf_100_offsetBlur" operator="in" result="pf_100_dropShadow"/><feBlend xmlns="http://www.w3.org/2000/svg" in="SourceGraphic" in2="pf_100_dropShadow" mode="normal"/></filter></defs><path d=" M 136.281 23 L 136.281 60.78 L 169 41.89 L 136.281 23 Z " fill="rgb(146,20,110)"/><path d=" M 169 41.89 L 169 79.671 L 136.281 60.78 L 169 41.89 Z " fill="rgb(192,4,97)"/><g filter="url(#8Aqrmi2zs5Vwlxlcz2Zp1aXNY7zpDitA)"><path d=" M 201.719 23 L 201.719 60.78 L 234.438 41.89 L 201.719 23 Z " fill="rgb(183,86,26)"/></g><defs><filter id="8Aqrmi2zs5Vwlxlcz2Zp1aXNY7zpDitA" x="-200%" y="-200%" width="400%" height="400%" filterUnits="objectBoundingBox" color-interpolation-filters="sRGB"><feGaussianBlur xmlns="http://www.w3.org/2000/svg" in="SourceGraphic" stdDeviation="10.73402265709757"/><feOffset xmlns="http://www.w3.org/2000/svg" dx="0" dy="10" result="pf_100_offsetBlur"/><feFlood xmlns="http://www.w3.org/2000/svg" flood-color="#000000" flood-opacity="0.65"/><feComposite xmlns="http://www.w3.org/2000/svg" in2="pf_100_offsetBlur" operator="in" result="pf_100_dropShadow"/><feBlend xmlns="http://www.w3.org/2000/svg" in="SourceGraphic" in2="pf_100_dropShadow" mode="normal"/></filter></defs><path d=" M 201.719 23 L 201.719 60.78 L 169 41.89 L 201.719 23 Z " fill="rgb(245,16,56)"/><path d=" M 234.438 4.11 L 234.438 41.89 L 201.719 23 L 234.438 4.11 Z " fill="rgb(118,145,57)"/><path d=" M 103.562 4.11 L 103.562 41.89 L 136.281 23 L 103.562 4.11 Z " fill="rgb(119,10,134)"/><path d=" M 169 41.89 L 169 79.671 L 201.719 60.78 L 169 41.89 Z " fill="rgb(221,4,74)"/></g></g></svg>